# xmcd
#
# Track frame offsets:
#	150
#	16250
#	31580
#	48470
#	65687
#	85177
#	98152
#	117440
#	133620
#	151515
#	169427
#	187875
#	205625
#	224230
#	239637
#	255417
#	275505
#	291677
#	306265
#	306867
#	307470
#	308072
#	309219
#	310262
#	311410
#	312540
#	313500
#	314394
#	315240
#	316360
#	317420
#	318325
#	319112
#	320082
#	321025
#	322165
#	323002
#	324240
#	325282
#
# Disc length: 4350 seconds
#
# Revision: 0
# Processed by: cddbd v1.5.2PL0 Copyright (c) Steve Scherf et al.
# Submitted via: EasyCDDAExtractor 7.1.2.1
#
DISCID=3810fc27
DTITLE=Various Artist - TM Century - GoldDisc 1181
DYEAR=1900
DGENRE=Country
TTITLE0=Neal McCoy - The Shake
TTITLE1=David Kersh - Day In, Day Out
TTITLE2=Collin Raye - What The Heart Wants
TTITLE3=Diamond Rio - How Your Love Makes Me Feel [Radio Edit]
TTITLE4=John Michael Montgomery - How Was I To Know
TTITLE5=Lorrie Morgan - Go Away
TTITLE6=Billy Ray Cyrus - That's All The Same To Me
TTITLE7=Lee Ann Womack - The Fool
TTITLE8=Sawyer Brown - This Night Won't Last Forever
TTITLE9=Toby Keith - We Were In Love [Radio Edit]
TTITLE10=Alabama - Dancin', Shaggin' On The Boulevard [Edit]
TTITLE11=Alan Jackson - There Goes
TTITLE12=Travis Tritt and Lari White - Helping Me Get Over You [Remix]
TTITLE13=Vince Gill - You And You Alone
TTITLE14=Deana Carter - How Do We Get There [Edit]
TTITLE15=Tim McGraw - Everywhere [Edited Version]
TTITLE16=Trisha Yearwood and Garth Brooks - In Another's Eyes
TTITLE17=Brooks and Dunn - Honky Tonk Truth
TTITLE18=hook track - hook track
TTITLE19=hook track - hook track
TTITLE20=hook track - hook track
TTITLE21=hook track - hook track
TTITLE22=hook track - hook track
TTITLE23=hook track - hook track
TTITLE24=hook track - hook track
TTITLE25=hook track - hook track
TTITLE26=hook track - hook track
TTITLE27=hook track - hook track
TTITLE28=hook track - hook track
TTITLE29=hook track - hook track
TTITLE30=hook track - hook track
TTITLE31=hook track - hook track
TTITLE32=hook track - hook track
TTITLE33=hook track - hook track
TTITLE34=hook track - hook track
TTITLE35=hook track - hook track
TTITLE36=hook track - hook track
TTITLE37=hook track - hook track
TTITLE38=hook track - hook track
EXTD=
EXTT0=
EXTT1=
EXTT2=
EXTT3=
EXTT4=
EXTT5=
EXTT6=
EXTT7=
EXTT8=
EXTT9=
EXTT10=
EXTT11=
EXTT12=
EXTT13=
EXTT14=
EXTT15=
EXTT16=
EXTT17=
EXTT18=
EXTT19=
EXTT20=
EXTT21=
EXTT22=
EXTT23=
EXTT24=
EXTT25=
EXTT26=
EXTT27=
EXTT28=
EXTT29=
EXTT30=
EXTT31=
EXTT32=
EXTT33=
EXTT34=
EXTT35=
EXTT36=
EXTT37=
EXTT38=
PLAYORDER=
